P3
3 2
255
127
0
0
0
0
0
0
0
0
127
127
0
0
0
0
0
0
0
